<svg version="1.1" id="Layer_1" xmlns="http://www.w3.org/2000/svg" xmlns:xlink="http://www.w3.org/1999/xlink" x="0px" y="0px"
	 width="100%" viewBox="0 0 1024 1024" enable-background="new 0 0 1024 1024" xml:space="preserve">
<path fill="#000000" opacity="1.000000" stroke="none" 
	d="
M505.987518,714.284424 
	C481.108826,715.370911 457.081940,721.435425 432.446259,720.176025 
	C416.157806,719.343384 399.849518,718.882996 383.566681,717.963318 
	C377.350677,717.612183 371.549377,715.367920 366.178925,712.142151 
	C351.778687,703.492737 337.256653,695.086243 322.222626,687.539673 
	C313.825165,683.324463 307.559387,676.158142 301.083710,669.515930 
	C288.313416,656.417297 275.417267,643.443481 262.587158,630.412964 
	C254.139191,621.833008 247.588104,611.362976 242.815948,600.063843 
	C239.245438,591.609924 233.480347,584.301147 230.240417,575.666077 
	C227.215103,567.602966 225.853378,559.508362 226.641953,550.751160 
	C228.054794,535.061768 223.958847,519.999695 219.601242,505.104828 
	C215.971085,492.696564 213.791351,480.407928 220.365173,468.253387 
	C224.014771,461.505493 229.523361,456.613892 235.587448,452.029297 
	C247.911301,442.712128 262.380249,438.886353 276.878082,435.062225 
	C283.395233,433.343231 289.390015,430.501312 295.258820,427.332397 
	C300.500549,424.502075 303.254089,419.477814 306.151276,414.589844 
	C311.397949,405.737915 315.377350,396.008423 323.431213,389.076019 
	C326.952576,386.044952 330.475830,382.974243 334.273163,380.314056 
	C342.885864,374.280548 350.227203,366.774445 357.627838,359.479004 
	C367.253448,349.990204 378.406006,347.516083 391.065430,349.317780 
	C397.656555,350.255859 404.139069,351.983307 410.737488,352.838898 
	C427.343750,354.992126 443.972992,352.471710 460.607025,352.642029 
	C475.761566,352.797180 490.768188,350.472809 505.562714,346.946716 
	C512.372437,345.323669 519.188232,343.847717 525.714050,341.216705 
	C530.868286,339.138672 536.173462,339.623840 541.419617,340.981567 
	C569.189636,348.168365 597.435974,352.895447 625.834778,356.554260 
	C636.124817,357.879974 646.382080,354.845856 656.415222,352.511383 
	C671.943054,348.898468 685.619995,353.068054 698.808716,360.942871 
	C706.222046,365.369263 713.435486,370.180237 721.407715,373.645630 
	C740.922302,382.128204 750.838562,399.000244 758.636230,417.348206 
	C761.499390,424.085419 763.825439,431.053406 767.662842,437.319000 
	C771.052612,442.853668 774.909058,448.118195 777.439514,454.136871 
	C781.534180,463.875977 789.766113,469.255432 798.576721,473.726868 
	C808.534363,478.780487 813.642029,486.872559 813.947266,497.620941 
	C814.324829,510.918610 813.921631,524.147644 810.906067,537.343506 
	C807.472900,552.366943 799.282104,564.264465 789.789490,575.820496 
	C777.341003,590.974854 763.283203,604.741211 751.949829,620.871582 
	C740.143127,637.675598 725.364136,651.616821 707.353760,661.589539 
	C697.596130,666.992615 687.770691,672.158630 678.674072,678.671143 
	C673.018494,682.719971 667.661377,687.113098 661.548828,690.652832 
	C649.021118,697.907471 636.029053,702.708801 621.685242,705.552917 
	C588.976685,712.038452 555.858215,712.072144 522.851562,714.132568 
	C517.373718,714.474487 511.915955,715.375732 505.987518,714.284424 
M346.128326,463.567474 
	C333.917297,458.708801 321.706268,453.850128 309.273376,448.903198 
	C308.869598,451.387360 310.011871,452.025970 310.794769,452.804779 
	C317.408264,459.383392 324.117950,465.866943 330.653381,472.521759 
	C333.428711,475.347748 336.765381,477.095062 340.325592,478.521393 
	C348.044098,481.613586 355.825073,484.550537 363.531158,487.672760 
	C395.094604,500.461029 426.506317,513.639893 458.268372,525.912781 
	C468.478333,529.857971 473.723633,538.125610 480.365204,545.570251 
	C442.247589,531.497437 405.013062,515.435669 366.941101,500.898193 
	C366.213837,504.237793 367.754852,505.232574 368.837524,506.417938 
	C371.083282,508.876862 373.599182,511.119110 375.625732,513.742615 
	C381.873993,521.831482 388.598267,529.119934 399.083221,531.760437 
	C402.757263,532.685669 406.242737,534.375732 409.794617,535.766846 
	C432.066711,544.489746 454.338959,553.212219 476.598785,561.966248 
	C485.828400,565.595947 495.027496,569.303162 504.730377,573.170349 
	C502.015350,576.027710 502.610168,579.566772 500.695465,582.220886 
	C498.593689,585.134338 499.946411,586.551880 503.102325,586.606323 
	C508.765808,586.703979 514.432983,586.722595 520.096313,586.630615 
	C522.317505,586.594604 524.776672,587.292297 526.854309,585.109192 
	C525.071594,581.242676 523.278076,577.352661 521.347595,573.165649 
	C523.401672,572.271423 525.335022,571.348755 527.326599,570.576294 
	C536.924255,566.854004 546.548157,563.199463 556.143188,559.470703 
	C578.290222,550.864075 600.467834,542.333374 622.538086,533.533936 
	C628.365662,531.210449 635.052185,530.083496 639.653076,525.744202 
	C646.152039,519.614807 651.782410,512.562500 657.755371,505.879028 
	C658.819885,504.687897 660.282593,503.601013 659.251709,500.498657 
	C621.108276,515.890076 583.055420,531.244873 545.002625,546.599731 
	C552.411316,537.377686 559.522522,529.020630 571.262512,524.568665 
	C608.090881,510.602661 644.395874,495.253510 680.859070,480.331482 
	C685.131531,478.583069 689.870422,477.586151 693.336426,474.239563 
	C699.567261,468.223389 705.726379,462.130859 711.808777,455.965027 
	C712.993530,454.764038 714.785034,453.646790 714.270142,451.402985 
	C713.112366,450.189209 711.945618,450.526123 710.620728,451.086700 
	C707.417786,452.441925 704.157227,453.660675 700.926025,454.949677 
	C652.179626,474.395477 603.433533,493.841980 554.690613,513.296509 
	C552.075256,514.340393 549.355408,515.248840 547.314575,517.315247 
	C540.292908,524.424683 533.325928,531.588318 526.281189,538.674744 
	C525.193298,539.769043 524.425110,541.537415 522.327637,541.268738 
	C521.204041,539.388184 521.693481,537.352112 521.690430,535.418579 
	C521.655212,512.924866 521.655029,490.431091 521.687073,467.937347 
	C521.700012,458.854675 520.443176,449.557648 526.291931,441.619934 
	C521.490723,438.293518 503.439392,438.518646 499.709381,441.932312 
	C504.435577,448.440277 504.413666,456.060974 504.376343,463.783966 
	C504.260315,487.776733 504.353943,511.770508 504.294891,535.763672 
	C504.290344,537.619507 505.062958,539.732361 502.694183,541.995728 
	C495.190247,534.390442 487.592285,526.981873 480.377228,519.217468 
	C477.880005,516.530090 475.043427,514.766724 471.817657,513.477966 
	C452.247162,505.659454 432.648285,497.911987 413.056671,490.146484 
	C390.980713,481.396240 368.902405,472.652008 346.128326,463.567474 
M566.311707,486.116394 
	C565.540649,492.409454 562.623352,497.722504 557.581787,502.546265 
	C566.158325,503.020050 575.091431,496.734863 579.884155,488.313995 
	C584.562622,480.093842 583.825989,471.009857 584.644714,462.169800 
	C585.194519,456.233490 583.987122,450.233154 585.507690,444.285004 
	C586.348938,440.994507 583.986694,440.228088 581.288452,440.626404 
	C574.125427,441.683716 570.961060,446.784180 569.390747,453.093170 
	C566.769043,463.626709 566.924133,474.459961 566.311707,486.116394 
M459.540222,500.873199 
	C462.199066,501.717987 464.625153,503.839722 468.414703,502.500671 
	C462.904510,497.875671 460.219025,492.347290 459.707458,485.806213 
	C458.985107,476.569885 458.342773,467.327362 457.650360,458.088654 
	C456.960510,448.884216 452.410889,442.551941 445.213745,440.740967 
	C441.511505,439.809357 439.762268,441.100250 440.415527,444.507507 
	C442.235382,453.999451 441.427856,463.649200 442.159393,473.214020 
	C443.098938,485.497467 447.898224,494.773560 459.540222,500.873199 
z"/>
</svg>